<svg width="33" height="34" viewBox="0 0 33 34" fill="none" xmlns="http://www.w3.org/2000/svg">
<g clip-path="url(#clip0_25_77)">
<path d="M31.9529 10.2C31.9529 10.2 31.6413 7.85591 30.6816 6.82661C29.4664 5.47192 28.1079 5.46528 27.4847 5.3856C23.0228 5.04028 16.3237 5.04028 16.3237 5.04028H16.3112C16.3112 5.04028 9.61214 5.04028 5.15022 5.3856C4.52705 5.46528 3.16853 5.47192 1.95335 6.82661C0.993662 7.85591 0.688307 10.2 0.688307 10.2C0.688307 10.2 0.364258 12.9559 0.364258 15.7051V18.2817C0.364258 21.0309 0.682076 23.7868 0.682076 23.7868C0.682076 23.7868 0.993662 26.1309 1.94712 27.1602C3.1623 28.5149 4.75762 28.4684 5.46804 28.6145C8.02305 28.8735 16.3175 28.9532 16.3175 28.9532C16.3175 28.9532 23.0228 28.9399 27.4847 28.6012C28.1079 28.5215 29.4664 28.5149 30.6816 27.1602C31.6413 26.1309 31.9529 23.7868 31.9529 23.7868C31.9529 23.7868 32.2707 21.0375 32.2707 18.2817V15.7051C32.2707 12.9559 31.9529 10.2 31.9529 10.2ZM13.0209 21.4094V11.8536L21.6394 16.6481L13.0209 21.4094Z" fill="white"/>
</g>
<defs>
<clipPath id="clip0_25_77">
<rect width="31.9064" height="34" fill="white" transform="translate(0.364258)"/>
</clipPath>
</defs>
</svg>
