<svg width="32" height="34" viewBox="0 0 32 34" fill="none" xmlns="http://www.w3.org/2000/svg">
<path d="M15.9044 0C7.12083 0 0 7.58787 0 16.9478C0 26.3081 7.12083 33.8954 15.9044 33.8954C24.6889 33.8954 31.809 26.3081 31.809 16.9478C31.809 7.58848 24.6889 0.000809519 15.9042 0.000809519L15.9044 0ZM23.1981 24.4436C22.9132 24.9414 22.3016 25.0993 21.8344 24.7937C18.1003 22.3631 13.3994 21.8126 7.86323 23.1605C7.32974 23.29 6.79797 22.9338 6.67642 22.3651C6.5543 21.7964 6.88723 21.2298 7.42204 21.1002C13.4805 19.6247 18.6772 20.2604 22.8695 22.9905C23.3367 23.2961 23.4848 23.9457 23.1981 24.4436ZM25.1447 19.8283C24.7858 20.4506 24.0223 20.6469 23.4393 20.2644C19.1642 17.4637 12.6475 16.6527 7.59088 18.2884C6.93509 18.4994 6.24245 18.1056 6.04342 17.408C5.8459 16.7092 6.21568 15.9725 6.87033 15.76C12.6463 13.8924 19.827 14.7971 24.7364 18.0119C25.3195 18.3944 25.5037 19.2078 25.1447 19.8283ZM25.3119 15.0229C20.1859 11.7786 11.7288 11.4803 6.83481 13.0631C6.04893 13.3171 5.21784 12.8443 4.97968 12.0069C4.74152 11.169 5.18479 10.284 5.97125 10.0294C11.5893 8.21201 20.9285 8.56314 26.8301 12.2965C27.5385 12.7435 27.7702 13.7164 27.3505 14.4686C26.9326 15.2219 26.0172 15.4702 25.3126 15.0229H25.3119Z" fill="white"/>
</svg>
