<svg width="33" height="34" viewBox="0 0 33 34" fill="none" xmlns="http://www.w3.org/2000/svg">
<g clip-path="url(#clip0_25_78)">
<path d="M16.6822 3.06133C20.9447 3.06133 21.4495 3.08125 23.1258 3.16094C24.6838 3.23398 25.525 3.51289 26.0859 3.74531C26.8275 4.05078 27.3634 4.42266 27.918 5.01367C28.4789 5.61133 28.8216 6.17578 29.1083 6.96602C29.3264 7.56367 29.5881 8.4668 29.6567 10.1203C29.7314 11.9133 29.7501 12.4512 29.7501 16.9867C29.7501 21.5289 29.7314 22.0668 29.6567 23.8531C29.5881 25.5133 29.3264 26.4098 29.1083 27.0074C28.8216 27.7977 28.4726 28.3687 27.918 28.9598C27.3572 29.5574 26.8275 29.9227 26.0859 30.2281C25.525 30.4605 24.6775 30.7395 23.1258 30.8125C21.4433 30.8922 20.9385 30.9121 16.6822 30.9121C12.4197 30.9121 11.9149 30.8922 10.2386 30.8125C8.68068 30.7395 7.8394 30.4605 7.27855 30.2281C6.53697 29.9227 6.00104 29.5508 5.44642 28.9598C4.88556 28.3621 4.54282 27.7977 4.25616 27.0074C4.03805 26.4098 3.77632 25.5066 3.70777 23.8531C3.63299 22.0602 3.61429 21.5223 3.61429 16.9867C3.61429 12.4445 3.63299 11.9066 3.70777 10.1203C3.77632 8.46016 4.03805 7.56367 4.25616 6.96602C4.54282 6.17578 4.8918 5.60469 5.44642 5.01367C6.00727 4.41602 6.53697 4.05078 7.27855 3.74531C7.8394 3.51289 8.68692 3.23398 10.2386 3.16094C11.9149 3.08125 12.4197 3.06133 16.6822 3.06133ZM16.6822 0C12.3512 0 11.809 0.0199219 10.1077 0.0996094C8.41272 0.179297 7.24739 0.471484 6.23785 0.889844C5.18469 1.32812 4.29355 1.90586 3.40865 2.85547C2.51751 3.79844 1.97535 4.74805 1.56405 5.86367C1.17146 6.94609 0.89726 8.18125 0.82248 9.9875C0.747699 11.807 0.729004 12.3848 0.729004 17C0.729004 21.6152 0.747699 22.193 0.82248 24.0059C0.89726 25.8121 1.17146 27.0539 1.56405 28.1297C1.97535 29.252 2.51751 30.2016 3.40865 31.1445C4.29355 32.0875 5.18469 32.6719 6.23162 33.1035C7.24739 33.5219 8.40649 33.8141 10.1015 33.8937C11.8028 33.9734 12.3449 33.9934 16.676 33.9934C21.007 33.9934 21.5492 33.9734 23.2505 33.8937C24.9455 33.8141 26.1108 33.5219 27.1204 33.1035C28.1673 32.6719 29.0584 32.0875 29.9433 31.1445C30.8282 30.2016 31.3766 29.252 31.7817 28.1363C32.1743 27.0539 32.4485 25.8188 32.5233 24.0125C32.598 22.1996 32.6167 21.6219 32.6167 17.0066C32.6167 12.3914 32.598 11.8137 32.5233 10.0008C32.4485 8.19453 32.1743 6.95273 31.7817 5.87695C31.3891 4.74805 30.8469 3.79844 29.9558 2.85547C29.0709 1.9125 28.1797 1.32812 27.1328 0.896484C26.117 0.478125 24.9579 0.185938 23.2629 0.10625C21.5554 0.0199219 21.0133 0 16.6822 0Z" fill="white"/>
<path d="M16.682 8.26758C12.1578 8.26758 8.4873 12.1789 8.4873 17C8.4873 21.8211 12.1578 25.7324 16.682 25.7324C21.2063 25.7324 24.8767 21.8211 24.8767 17C24.8767 12.1789 21.2063 8.26758 16.682 8.26758ZM16.682 22.6645C13.7469 22.6645 11.3664 20.1277 11.3664 17C11.3664 13.8723 13.7469 11.3355 16.682 11.3355C19.6172 11.3355 21.9977 13.8723 21.9977 17C21.9977 20.1277 19.6172 22.6645 16.682 22.6645Z" fill="white"/>
<path d="M27.1144 7.92222C27.1144 9.05113 26.2544 9.96089 25.2012 9.96089C24.1418 9.96089 23.2881 9.04449 23.2881 7.92222C23.2881 6.79331 24.1481 5.88354 25.2012 5.88354C26.2544 5.88354 27.1144 6.79995 27.1144 7.92222Z" fill="white"/>
</g>
<defs>
<clipPath id="clip0_25_78">
<rect width="31.9064" height="34" fill="white" transform="translate(0.729004)"/>
</clipPath>
</defs>
</svg>
